# xmcd CD database file
#
# Track frame offsets:
#	150
#	19107
#	36811
#	53354
#	72093
#	92492
#
# Disc length: 1488 seconds
#
# Revision: 0
# Processed by: cddbd v1.5.1PL2 Copyright (c) Steve Scherf et al.
# Submitted via: CDex 1.60beta1
#
DISCID=3c05ce06
DTITLE=真優 - Strawberrymilk (Disc2)
DYEAR=2005
DGENRE=JPop
TTITLE0=ラムネ色のメロディ -Album Mix-
TTITLE1=もも色のあまやどり
TTITLE2=恋の勇気
TTITLE3=さよならの予感
TTITLE4=ふりこ時計のハート
TTITLE5=ラムネがうまく飲めなくて
EXTD=YEAR: 2005
EXTT0=
EXTT1=
EXTT2=
EXTT3=
EXTT4=
EXTT5=
PLAYORDER=
